<?xml version="1.0" encoding="UTF-8" standalone="no"?>
<!DOCTYPE svg PUBLIC "-//W3C//DTD SVG 1.1//EN" "http://www.w3.org/Graphics/SVG/1.1/DTD/svg11.dtd">
<svg width="100%" height="100%" viewBox="0 0 53 37" version="1.1" xmlns="http://www.w3.org/2000/svg" xmlns:xlink="http://www.w3.org/1999/xlink" xml:space="preserve" xmlns:serif="http://www.serif.com/" style="fill-rule:evenodd;clip-rule:evenodd;stroke-linejoin:round;stroke-miterlimit:2;">
    <g transform="matrix(1,0,0,1,-1384.81,-7669.52)">
        <g transform="matrix(1.08696,0,0,1.08696,1384.81,7669.52)">
            <g transform="matrix(1,0,0,1,6,8)">
                <path d="M0,9C-0.553,9 -1,8.553 -1,8L-1,3.435C-1,1.541 0.475,0 2.288,0L28,0C28.553,0 29,0.447 29,1C29,1.553 28.553,2 28,2L2.288,2C1.578,2 1,2.644 1,3.435L1,8C1,8.553 0.553,9 0,9" style="fill:rgb(128,128,128);fill-rule:nonzero;"/>
            </g>
            <g transform="matrix(1,0,0,1,47,34)">
                <path d="M0,-34C-0.553,-34 -1,-33.553 -1,-33L-1,-30L-16.401,-30C-18.561,-30 -20.584,-29.036 -21.951,-27.356L-23.355,-25.632C-23.704,-25.203 -23.64,-24.573 -23.212,-24.225C-23.026,-24.073 -22.803,-24 -22.581,-24C-22.29,-24 -22.002,-24.126 -21.805,-24.368L-20.4,-26.094C-19.414,-27.305 -17.957,-28 -16.401,-28L-1,-28L-1,-15L-3.878,-15C-4.266,-15 -4.62,-14.772 -4.785,-14.421C-4.791,-14.408 -5.215,-13.54 -6,-12.736L-6,-19C-6,-19.001 -6.001,-19.002 -6.001,-19.003C-5.78,-19.143 -5.559,-19.285 -5.339,-19.451C-4.897,-19.784 -4.81,-20.411 -5.142,-20.852C-5.474,-21.292 -6.101,-21.382 -6.542,-21.049C-6.977,-20.721 -7.404,-20.463 -7.818,-20.278C-10.483,-19.081 -12.357,-20.881 -12.43,-20.953C-12.618,-21.143 -12.874,-21.25 -13.141,-21.25L-13.142,-21.25C-13.408,-21.25 -13.664,-21.144 -13.852,-20.954L-17.195,-17.582C-17.789,-16.989 -18.812,-17.003 -19.385,-17.576C-19.992,-18.193 -19.993,-19.192 -19.388,-19.804L-14.936,-24.296C-14.547,-24.688 -14.549,-25.321 -14.941,-25.71C-15.334,-26.099 -15.967,-26.097 -16.355,-25.704L-20.808,-21.212C-22.18,-19.827 -22.182,-17.567 -20.805,-16.168C-20.132,-15.495 -19.239,-15.125 -18.289,-15.125C-17.345,-15.125 -16.454,-15.495 -15.778,-16.171L-13.057,-18.915C-12.083,-18.269 -10.281,-17.448 -8,-18.088L-8,-3.435C-8,-2.644 -8.568,-2 -9.267,-2L-38.733,-2C-39.432,-2 -40,-2.644 -40,-3.435L-40,-6C-40,-6.553 -40.447,-7 -41,-7C-41.553,-7 -42,-6.553 -42,-6L-42,-3.435C-42,-1.541 -40.534,0 -38.733,0L-9.267,0C-7.466,0 -6,-1.541 -6,-3.435L-6,-10.195C-4.622,-11.013 -3.724,-12.269 -3.285,-13L-1,-13L-1,-12C-1,-11.447 -0.553,-11 0,-11C0.553,-11 1,-11.447 1,-12L1,-33C1,-33.553 0.553,-34 0,-34" style="fill:rgb(128,128,128);fill-rule:nonzero;"/>
            </g>
            <g transform="matrix(1,0,0,1,-1386.9,-7245)">
                <path d="M1405.9,7274L1389.9,7274C1389.34,7274 1388.9,7273.55 1388.9,7273C1388.9,7272.45 1389.34,7272 1389.9,7272L1405.9,7272C1406.45,7272 1406.9,7272.45 1406.9,7273C1406.9,7273.55 1406.45,7274 1405.9,7274ZM1395.9,7268L1391.9,7268C1391.34,7268 1390.9,7267.55 1390.9,7267C1390.9,7266.45 1391.34,7266 1391.9,7266L1395.9,7266C1396.45,7266 1396.9,7266.45 1396.9,7267C1396.9,7267.55 1396.45,7268 1395.9,7268ZM1411.9,7268L1399.9,7268C1399.34,7268 1398.9,7267.55 1398.9,7267C1398.9,7266.45 1399.34,7266 1399.9,7266L1411.9,7266C1412.45,7266 1412.9,7266.45 1412.9,7267C1412.9,7267.55 1412.45,7268 1411.9,7268ZM1401.9,7262L1387.9,7262C1387.34,7262 1386.9,7261.55 1386.9,7261C1386.9,7260.45 1387.34,7260 1387.9,7260L1401.9,7260C1402.45,7260 1402.9,7260.45 1402.9,7261C1402.9,7261.55 1402.45,7262 1401.9,7262Z" style="fill:rgb(36,105,201);fill-rule:nonzero;"/>
            </g>
        </g>
    </g>
</svg>
