<?xml version="1.0" encoding="UTF-8" standalone="no"?>
<!DOCTYPE svg PUBLIC "-//W3C//DTD SVG 1.1//EN" "http://www.w3.org/Graphics/SVG/1.1/DTD/svg11.dtd">
<svg width="100%" height="100%" viewBox="0 0 53 48" version="1.1" xmlns="http://www.w3.org/2000/svg" xmlns:xlink="http://www.w3.org/1999/xlink" xml:space="preserve" xmlns:serif="http://www.serif.com/" style="fill-rule:evenodd;clip-rule:evenodd;stroke-linejoin:round;stroke-miterlimit:2;">
    <g transform="matrix(1,0,0,1,-483.017,-7664.09)">
        <g transform="matrix(1.08696,0,0,1.08696,483.017,7664.09)">
            <g transform="matrix(1,0,0,1,18,32.4774)">
                <path d="M0,-22.954L-3.628,-24.406C-3.868,-24.502 -4.132,-24.502 -4.372,-24.406L-8,-22.954L-8,-30.477L0,-30.477L0,-22.954ZM6,7.523L-14,7.523C-15.103,7.523 -16,6.625 -16,5.523L-16,-28.477C-16,-29.58 -15.103,-30.477 -14,-30.477L-10,-30.477L-10,-21.477C-10,-21.145 -9.835,-20.836 -9.561,-20.649C-9.285,-20.464 -8.937,-20.425 -8.628,-20.549L-4,-22.4L0.628,-20.549C0.749,-20.501 0.875,-20.477 1,-20.477C1.197,-20.477 1.393,-20.536 1.561,-20.649C1.835,-20.836 2,-21.145 2,-21.477L2,-30.477L20,-30.477C21.103,-30.477 22,-29.58 22,-28.477L22,-13.477C22,-12.925 22.448,-12.477 23,-12.477C23.552,-12.477 24,-12.925 24,-13.477L24,-28.477C24,-30.683 22.206,-32.477 20,-32.477L-14,-32.477C-16.206,-32.477 -18,-30.683 -18,-28.477L-18,5.523C-18,7.729 -16.206,9.523 -14,9.523L6,9.523C6.552,9.523 7,9.075 7,8.523C7,7.97 6.552,7.523 6,7.523" style="fill:rgb(128,128,128);fill-rule:nonzero;"/>
            </g>
            <g transform="matrix(1,0,0,1,0,26)">
                <rect x="6" y="8" width="6" height="2" style="fill:rgb(128,128,128);"/>
            </g>
            <g transform="matrix(-1,0,0,1,18,18)">
                <rect x="6" y="12" width="6" height="2" style="fill:rgb(128,128,128);"/>
            </g>
            <g transform="matrix(1,0,0,1,-485.104,-7240)">
                <path d="M522.104,7262C516.039,7262 511.104,7266.94 511.104,7273C511.104,7279.07 516.039,7284 522.104,7284C528.169,7284 533.104,7279.07 533.104,7273C533.104,7266.94 528.169,7262 522.104,7262ZM522.104,7282C517.142,7282 513.104,7277.96 513.104,7273C513.104,7268.04 517.142,7264 522.104,7264C527.066,7264 531.104,7268.04 531.104,7273C531.104,7277.96 527.066,7282 522.104,7282ZM525.38,7269.31L520.39,7274.55L518.828,7272.91C518.448,7272.51 517.814,7272.5 517.415,7272.88C517.015,7273.26 516.999,7273.89 517.38,7274.29L519.666,7276.69C519.854,7276.89 520.116,7277 520.39,7277C520.663,7277 520.925,7276.89 521.114,7276.69L526.828,7270.69C527.209,7270.29 527.193,7269.66 526.794,7269.28C526.394,7268.9 525.761,7268.91 525.38,7269.31Z" style="fill:rgb(36,105,201);fill-rule:nonzero;"/>
            </g>
        </g>
    </g>
</svg>
