<?xml version="1.0" encoding="UTF-8" standalone="no"?>
<!DOCTYPE svg PUBLIC "-//W3C//DTD SVG 1.1//EN" "http://www.w3.org/Graphics/SVG/1.1/DTD/svg11.dtd">
<svg width="100%" height="100%" viewBox="0 0 53 42" version="1.1" xmlns="http://www.w3.org/2000/svg" xmlns:xlink="http://www.w3.org/1999/xlink" xml:space="preserve" xmlns:serif="http://www.serif.com/" style="fill-rule:evenodd;clip-rule:evenodd;stroke-linejoin:round;stroke-miterlimit:2;">
    <g transform="matrix(1,0,0,1,-783.614,-7667.35)">
        <g transform="matrix(1.08696,0,0,1.08696,783.614,7667.35)">
            <g transform="matrix(1,0,0,1,23,19)">
                <path d="M0,2L-14,2C-14.552,2 -15,1.553 -15,1C-15,0.447 -14.552,0 -14,0L0,0C0.552,0 1,0.447 1,1C1,1.553 0.552,2 0,2" style="fill:rgb(36,105,201);fill-rule:nonzero;"/>
            </g>
            <g transform="matrix(1,0,0,1,17,9)">
                <path d="M0,2L-14,2C-14.552,2 -15,1.553 -15,1C-15,0.447 -14.552,0 -14,0L0,0C0.552,0 1,0.447 1,1C1,1.553 0.552,2 0,2" style="fill:rgb(36,105,201);fill-rule:nonzero;"/>
            </g>
            <g transform="matrix(1,0,0,1,13,14)">
                <path d="M0,2L-12,2C-12.552,2 -13,1.553 -13,1C-13,0.447 -12.552,0 -12,0L0,0C0.552,0 1,0.447 1,1C1,1.553 0.552,2 0,2" style="fill:rgb(36,105,201);fill-rule:nonzero;"/>
            </g>
            <g transform="matrix(1,0,0,1,4.5,19)">
                <path d="M0,2L-3,2C-3.552,2 -4,1.553 -4,1C-4,0.447 -3.552,0 -3,0L0,0C0.552,0 1,0.447 1,1C1,1.553 0.552,2 0,2" style="fill:rgb(36,105,201);fill-rule:nonzero;"/>
            </g>
            <g transform="matrix(1,0,0,1,19,14)">
                <path d="M0,2L-2,2C-2.552,2 -3,1.553 -3,1C-3,0.447 -2.552,0 -2,0L0,0C0.552,0 1,0.447 1,1C1,1.553 0.552,2 0,2" style="fill:rgb(36,105,201);fill-rule:nonzero;"/>
            </g>
            <g transform="matrix(1,0,0,1,43,15.888)">
                <path d="M0,4.112L-5.632,4.112L-7.034,-1.146C-7.176,-1.679 -7.722,-2 -8.258,-1.854C-8.792,-1.712 -9.108,-1.164 -8.966,-0.63L-7.366,5.37C-7.25,5.807 -6.853,6.112 -6.4,6.112L0,6.112C0.552,6.112 1,5.665 1,5.112C1,4.559 0.552,4.112 0,4.112" style="fill:rgb(128,128,128);fill-rule:nonzero;"/>
            </g>
            <g transform="matrix(1,0,0,1,46,7.3566)">
                <path d="M0,23.286C0,24.034 -0.628,24.643 -1.4,24.643L-3.101,24.643C-3.566,22.364 -5.586,20.643 -8,20.643C-10.414,20.643 -12.434,22.364 -12.899,24.643L-25.101,24.643C-25.566,22.364 -27.586,20.643 -30,20.643C-32.414,20.643 -34.434,22.364 -34.899,24.643L-38.563,24.643C-39.355,24.643 -40,23.987 -40,23.182L-40,17.618L-16.625,17.618C-15.178,17.618 -14,16.433 -14,14.976L-14,4.643L-6.288,4.643C-6.08,4.643 -5.88,4.752 -5.772,4.919L-0.088,13.845C-0.031,13.936 0,14.044 0,14.148L0,23.286ZM-8,28.643C-9.654,28.643 -11,27.298 -11,25.643C-11,23.989 -9.654,22.643 -8,22.643C-6.346,22.643 -5,23.989 -5,25.643C-5,27.298 -6.346,28.643 -8,28.643M-30,28.643C-31.654,28.643 -33,27.298 -33,25.643C-33,23.989 -31.654,22.643 -30,22.643C-28.346,22.643 -27,23.989 -27,25.643C-27,27.298 -28.346,28.643 -30,28.643M1.604,12.778L-4.09,3.837C-4.576,3.09 -5.397,2.643 -6.288,2.643L-14,2.643L-14,-4.716C-14,-6.172 -15.178,-7.357 -16.625,-7.357L-39.375,-7.357C-40.822,-7.357 -42,-6.172 -42,-4.716L-42,-0.613C-42,-0.061 -41.552,0.387 -41,0.387C-40.448,0.387 -40,-0.061 -40,-0.613L-40,-4.716C-40,-5.064 -39.714,-5.357 -39.375,-5.357L-16.625,-5.357C-16.286,-5.357 -16,-5.064 -16,-4.716L-16,14.976C-16,15.324 -16.286,15.618 -16.625,15.618L-40.188,15.618C-41.187,15.618 -42,16.434 -42,17.438L-42,23.182C-42,25.091 -40.458,26.643 -38.563,26.643L-34.899,26.643C-34.434,28.923 -32.414,30.643 -30,30.643C-27.586,30.643 -25.566,28.923 -25.101,26.643L-12.899,26.643C-12.434,28.923 -10.414,30.643 -8,30.643C-5.586,30.643 -3.566,28.923 -3.101,26.643L-1.4,26.643C0.475,26.643 2,25.138 2,23.286L2,14.148C2,13.668 1.864,13.197 1.604,12.778" style="fill:rgb(128,128,128);fill-rule:nonzero;"/>
            </g>
        </g>
    </g>
</svg>
