<?xml version="1.0" encoding="UTF-8" standalone="no"?>
<!DOCTYPE svg PUBLIC "-//W3C//DTD SVG 1.1//EN" "http://www.w3.org/Graphics/SVG/1.1/DTD/svg11.dtd">
<svg width="100%" height="100%" viewBox="0 0 53 50" version="1.1" xmlns="http://www.w3.org/2000/svg" xmlns:xlink="http://www.w3.org/1999/xlink" xml:space="preserve" xmlns:serif="http://www.serif.com/" style="fill-rule:evenodd;clip-rule:evenodd;stroke-linejoin:round;stroke-miterlimit:2;">
    <g transform="matrix(1,0,0,1,-1084.21,-7663)">
        <g transform="matrix(1.08696,0,0,1.08696,1084.21,7663)">
            <g transform="matrix(1,0,0,1,46,19.3996)">
                <path d="M0,7.2C0,7.421 -0.18,7.6 -0.4,7.6L-8,7.6L-8,9.6L-3,9.6L-3,19.1C-3,20.479 -4.121,21.6 -5.5,21.6L-16,21.6L-16,9.6C-16,9.048 -16.447,8.6 -17,8.6C-17.553,8.6 -18,9.048 -18,9.6L-18,24.2C-18,24.421 -18.18,24.6 -18.4,24.6L-25.6,24.6C-25.82,24.6 -26,24.421 -26,24.2L-26,9.6C-26,9.048 -26.447,8.6 -27,8.6C-27.553,8.6 -28,9.048 -28,9.6L-28,21.6L-38.5,21.6C-39.879,21.6 -41,20.479 -41,19.1L-41,9.6L-36,9.6L-36,7.6L-43.6,7.6C-43.82,7.6 -44,7.421 -44,7.2L-44,0.001C-44,-0.22 -43.82,-0.4 -43.6,-0.4L-36,-0.4L-36,-2.4L-41,-2.4L-41,-11.9C-41,-13.279 -39.879,-14.4 -38.5,-14.4L-28,-14.4L-28,-2.4C-28,-1.847 -27.553,-1.4 -27,-1.4C-26.447,-1.4 -26,-1.847 -26,-2.4L-26,-16.999C-26,-17.22 -25.82,-17.4 -25.6,-17.4L-18.4,-17.4C-18.18,-17.4 -18,-17.22 -18,-16.999L-18,-2.4C-18,-1.847 -17.553,-1.4 -17,-1.4C-16.447,-1.4 -16,-1.847 -16,-2.4L-16,-14.4L-5.5,-14.4C-4.121,-14.4 -3,-13.279 -3,-11.9L-3,-2.4L-8,-2.4L-8,-0.4L-0.4,-0.4C-0.18,-0.4 0,-0.22 0,0.001L0,7.2ZM-0.4,-2.4L-1,-2.4L-1,-11.9C-1,-14.381 -3.019,-16.4 -5.5,-16.4L-16,-16.4L-16,-16.999C-16,-18.322 -17.077,-19.4 -18.4,-19.4L-25.6,-19.4C-26.923,-19.4 -28,-18.322 -28,-16.999L-28,-16.4L-38.5,-16.4C-40.981,-16.4 -43,-14.381 -43,-11.9L-43,-2.4L-43.6,-2.4C-44.923,-2.4 -46,-1.322 -46,0.001L-46,7.2C-46,8.523 -44.923,9.6 -43.6,9.6L-43,9.6L-43,19.1C-43,21.582 -40.981,23.6 -38.5,23.6L-28,23.6L-28,24.2C-28,25.523 -26.923,26.6 -25.6,26.6L-18.4,26.6C-17.077,26.6 -16,25.523 -16,24.2L-16,23.6L-5.5,23.6C-3.019,23.6 -1,21.582 -1,19.1L-1,9.6L-0.4,9.6C0.923,9.6 2,8.523 2,7.2L2,0.001C2,-1.322 0.923,-2.4 -0.4,-2.4" style="fill:rgb(128,128,128);fill-rule:nonzero;"/>
            </g>
            <g transform="matrix(1,0,0,1,37.5361,18.2695)">
                <path d="M0,8.461C-0.332,9.649 -0.844,10.585 -1.479,11.168C-3.178,12.72 -6.421,10.698 -8.197,9.358C-8.517,9.115 -8.793,8.893 -9.039,8.69C-8.107,7.632 -7.536,6.248 -7.536,4.731C-7.536,3.189 -8.125,1.786 -9.084,0.722C-8.834,0.556 -8.568,0.382 -8.274,0.196C-4.273,-2.294 -2.118,-2.591 -1.438,-2.04C-0.871,-1.575 -0.327,-0.451 0.017,0.971C0.614,3.386 0.607,6.324 0,8.461M-17.536,4.731C-17.536,2.524 -15.742,0.731 -13.536,0.731C-11.33,0.731 -9.536,2.524 -9.536,4.731C-9.536,6.937 -11.33,8.731 -13.536,8.731C-15.742,8.731 -17.536,6.937 -17.536,4.731M-25.638,11.497C-26.198,11.044 -26.743,9.92 -27.095,8.493C-27.687,6.067 -27.679,3.128 -27.071,1C-26.739,-0.188 -26.228,-1.124 -25.593,-1.707C-23.906,-3.246 -20.675,-1.246 -18.903,0.08C-18.613,0.3 -18.322,0.531 -18.033,0.771C-18.965,1.829 -19.536,3.213 -19.536,4.731C-19.536,6.272 -18.947,7.675 -17.988,8.739C-18.24,8.906 -18.508,9.08 -18.805,9.265C-22.81,11.757 -24.96,12.052 -25.638,11.497M1.959,0.495C1.638,-0.835 1.007,-2.622 -0.174,-3.59C-1.866,-4.965 -4.86,-4.282 -9.337,-1.499C-9.897,-1.145 -10.37,-0.827 -10.739,-0.573C-11.575,-1.016 -12.526,-1.269 -13.536,-1.269C-14.595,-1.269 -15.59,-0.991 -16.454,-0.508C-16.867,-0.86 -17.282,-1.202 -17.701,-1.518C-22.729,-5.277 -25.502,-4.496 -26.942,-3.183C-27.867,-2.334 -28.559,-1.108 -28.996,0.456C-29.7,2.926 -29.717,6.188 -29.037,8.97C-28.707,10.309 -28.067,12.105 -26.899,13.049C-26.337,13.508 -25.63,13.738 -24.771,13.738C-23.053,13.738 -20.729,12.817 -17.748,10.963C-17.198,10.621 -16.72,10.301 -16.332,10.035C-15.496,10.477 -14.546,10.731 -13.536,10.731C-12.479,10.731 -11.487,10.454 -10.624,9.972C-10.299,10.248 -9.893,10.582 -9.404,10.953C-6.654,13.026 -4.574,13.735 -3.018,13.735C-1.722,13.735 -0.788,13.245 -0.129,12.644C0.796,11.795 1.487,10.569 1.925,9.004C2.631,6.523 2.644,3.261 1.959,0.495" style="fill:rgb(36,105,201);fill-rule:nonzero;"/>
            </g>
        </g>
    </g>
</svg>
