<?xml version="1.0" encoding="UTF-8" standalone="no"?>
<!DOCTYPE svg PUBLIC "-//W3C//DTD SVG 1.1//EN" "http://www.w3.org/Graphics/SVG/1.1/DTD/svg11.dtd">
<svg width="100%" height="100%" viewBox="0 0 148 56" version="1.1" xmlns="http://www.w3.org/2000/svg" xmlns:xlink="http://www.w3.org/1999/xlink" xml:space="preserve" xmlns:serif="http://www.serif.com/" style="fill-rule:evenodd;clip-rule:evenodd;stroke-linejoin:round;stroke-miterlimit:2;">
    <g transform="matrix(1,0,0,1,-244,-92.0079)">
        <g transform="matrix(0.130976,0,0,0.130976,261.441,100.476)">
            <g transform="matrix(382.523,-223.693,-223.693,-382.523,-150.53,273.756)">
                <path d="M0.812,0.409C0.812,0.409 0.811,0.409 0.811,0.409C0.809,0.41 0.806,0.409 0.805,0.406C0.793,0.385 0.789,0.379 0.795,0.389C0.728,0.274 0.352,-0.369 0.335,-0.398C0.334,-0.4 0.334,-0.403 0.335,-0.405C0.335,-0.405 0.336,-0.405 0.336,-0.405C0.336,-0.406 0.337,-0.406 0.338,-0.407C0.338,-0.407 0.339,-0.407 0.34,-0.407C0.34,-0.407 0.341,-0.408 0.341,-0.408C0.374,-0.408 0.407,-0.408 0.44,-0.408C0.513,-0.409 0.754,-0.41 0.801,-0.41C0.803,-0.41 0.805,-0.409 0.806,-0.407C0.809,-0.402 0.922,-0.209 0.956,-0.149C0.959,-0.144 0.956,-0.138 0.95,-0.138L0.749,-0.135C0.747,-0.135 0.732,-0.146 0.731,-0.147L0.613,-0.206C0.606,-0.21 0.609,-0.22 0.616,-0.22L0.8,-0.223C0.805,-0.223 0.809,-0.229 0.806,-0.234L0.764,-0.307C0.762,-0.309 0.76,-0.31 0.757,-0.31L0.512,-0.307C0.506,-0.307 0.503,-0.301 0.506,-0.296L0.653,-0.044L0.8,0.208C0.803,0.213 0.81,0.213 0.813,0.208L0.936,-0.005C0.937,-0.007 0.937,-0.01 0.936,-0.012L0.905,-0.064C0.902,-0.069 0.906,-0.076 0.912,-0.076L0.995,-0.076C0.997,-0.076 1,-0.075 1.001,-0.073C1.009,-0.058 1.04,-0.007 1.044,0C1.045,0.002 1.045,0.005 1.044,0.006C0.987,0.108 0.926,0.215 0.866,0.32L0.866,0.32L0.817,0.405C0.817,0.405 0.817,0.405 0.817,0.406C0.817,0.406 0.817,0.406 0.816,0.406C0.816,0.407 0.816,0.407 0.816,0.407C0.815,0.407 0.815,0.408 0.814,0.408C0.814,0.408 0.814,0.408 0.814,0.408C0.813,0.409 0.813,0.409 0.812,0.409Z" style="fill:url(#_Linear1);fill-rule:nonzero;"/>
            </g>
        </g>
        <g transform="matrix(0.130976,0,0,0.130976,261.441,100.476)">
            <g transform="matrix(382.523,-223.693,-223.693,-382.523,-156.623,263.337)">
                <path d="M0.768,0.408C0.767,0.409 0.766,0.409 0.765,0.409C0.613,0.41 0.454,0.411 0.305,0.411C0.303,0.411 0.301,0.41 0.3,0.408C0.282,0.377 0.034,-0.046 -0.009,-0.12C-0.012,-0.125 -0.008,-0.131 -0.002,-0.131L0.201,-0.133C0.202,-0.133 0.216,-0.121 0.217,-0.121L0.347,-0.054C0.354,-0.05 0.351,-0.04 0.344,-0.04L0.153,-0.038C0.147,-0.038 0.143,-0.031 0.146,-0.027L0.342,0.308C0.343,0.31 0.346,0.312 0.349,0.312L0.594,0.309C0.599,0.309 0.603,0.302 0.6,0.298L0.242,-0.315C0.241,-0.317 0.241,-0.32 0.242,-0.322L0.289,-0.404C0.291,-0.409 0.298,-0.41 0.301,-0.405C0.356,-0.311 0.721,0.313 0.771,0.399C0.773,0.402 0.771,0.406 0.769,0.408L0.768,0.408Z" style="fill:url(#_Linear2);fill-rule:nonzero;"/>
            </g>
        </g>
        <g transform="matrix(0.130976,0,0,0.130976,261.441,100.476)">
            <g transform="matrix(-1,0,0,1,248.673,214.433)">
                <rect x="182.115" y="5.01" width="17.602" height="138.335" style="fill:rgb(202,212,218);"/>
            </g>
        </g>
        <g transform="matrix(0.130976,0,0,0.130976,261.441,100.476)">
            <g transform="matrix(1,0,0,1,6.28,347.188)">
                <path d="M0,-25.948L0,0.001C0,0.939 1.026,1.805 2.691,2.274L48.762,15.248C50.427,15.717 52.479,15.717 54.144,15.248L100.215,2.274C101.88,1.805 102.906,0.938 102.906,0.001L102.906,-25.948C102.906,-26.886 101.88,-27.753 100.215,-28.222L54.144,-41.196C52.479,-41.665 50.427,-41.665 48.762,-41.196L2.691,-28.222C1.026,-27.753 0,-26.886 0,-25.948" style="fill:rgb(202,212,218);fill-rule:nonzero;"/>
            </g>
        </g>
        <g transform="matrix(0.130976,0,0,0.130976,261.441,100.476)">
            <g transform="matrix(1,0,0,1,6.28,362.945)">
                <path d="M0,-41.948L51.453,-28.731L51.453,-2.235C51.453,-0.931 50.184,0 48.931,-0.383L1.513,-13.855C0.61,-14.15 0,-14.987 0,-15.932L0,-41.948Z" style="fill:rgb(179,191,196);fill-rule:nonzero;"/>
            </g>
        </g>
        <g transform="matrix(0.130976,0,0,0.130976,261.441,100.476)">
            <g transform="matrix(0,-1,-1,0,57.7331,179.097)">
                <path d="M-35.277,-35.277C-54.652,-35.277 -70.359,-19.483 -70.359,0C-70.359,19.483 -54.652,35.277 -35.277,35.277C-15.902,35.277 -0.195,19.483 -0.195,0C-0.195,-19.483 -15.902,-35.277 -35.277,-35.277" style="fill:rgb(240,248,242);fill-rule:nonzero;"/>
            </g>
        </g>
        <g transform="matrix(0.130976,0,0,0.130976,261.441,100.476)">
            <g transform="matrix(158.661,-91.5353,-91.5353,-158.661,-77.2757,268.249)">
                <path d="M0.759,0.047C0.724,0.041 0.7,0.016 0.704,-0.009C0.709,-0.033 0.741,-0.048 0.775,-0.042C0.81,-0.035 0.834,-0.01 0.83,0.014C0.828,0.025 0.82,0.034 0.81,0.04C0.797,0.048 0.778,0.051 0.759,0.047Z" style="fill:url(#_Linear3);fill-rule:nonzero;"/>
            </g>
        </g>
        <g transform="matrix(0.130976,0,0,0.130976,261.441,100.476)">
            <g transform="matrix(1,0,0,1,812.485,123.35)">
                <path d="M0,-65.068C-3.156,-54.807 -17.884,-47.79 -44.097,-44.015L-106.723,-35.134L-105.135,-40.261C-99.954,-57.122 -92.56,-68.627 -83.039,-74.729C-73.539,-80.812 -58.031,-83.893 -36.541,-83.893C-8.296,-83.893 3.869,-77.596 0,-65.068M-346.376,12.661C-347.033,14.754 -348.847,16.25 -351.024,16.525C-360.936,17.776 -374.313,18.402 -391.217,18.402C-424.266,18.402 -438.712,11.721 -434.527,-1.614C-431.512,-11.175 -422.873,-16.928 -408.489,-18.872L-341.985,-27.806C-337.947,-28.349 -334.714,-24.511 -335.933,-20.624L-346.376,12.661ZM176.669,-104.381C174.421,-107.671 171.71,-109.925 160.508,-110.773C157.554,-110.995 147.845,-111.331 131.502,-111.331C95.521,-111.331 69.213,-102.178 52.837,-84.09C50.041,-81.001 44.921,-82.073 43.578,-86.017C37.816,-102.936 12.877,-111.405 -31.3,-111.405C-95.426,-111.405 -135.465,-85.582 -151.418,-33.943C-156.358,-17.936 -157.601,-4.344 -155.173,6.859C-154.439,10.245 -156.715,13.526 -160.171,13.758L-168.42,14.311C-180.248,15.199 -195.811,16.02 -205.344,16.02C-228.819,16.02 -243.385,12.064 -249.01,4.199C-254.056,-2.866 -253.558,-15.979 -247.665,-35.134C-237.889,-66.824 -213.62,-81.108 -174.872,-81.108C-154.789,-81.148 -135.243,-79.002 -135.243,-79.002C-132.539,-79.17 -131.334,-81.983 -131.637,-84.304L-132.034,-87.318L-133.406,-97.982C-134.288,-104.979 -139.516,-109.124 -149.043,-110.416C-157.749,-111.008 -164.222,-111.405 -173.749,-111.405C-173.93,-111.405 -174.112,-111.391 -174.28,-111.391C-216.977,-111.301 -248.769,-99.455 -269.646,-75.89C-272.755,-72.381 -278.571,-73.917 -279.303,-78.548C-282.765,-100.451 -306.487,-111.405 -350.512,-111.405C-380.667,-111.405 -402.285,-110.55 -415.398,-108.841C-425.443,-107.59 -431.58,-103.432 -433.793,-96.361L-438.092,-82.669C-438.88,-80.166 -437.669,-78.921 -434.446,-78.921L-434.345,-78.935C-431.963,-79.237 -422.779,-80.139 -407.103,-81.397C-386.366,-83.059 -370.999,-83.893 -360.886,-83.893C-331.04,-83.893 -318.465,-76.412 -323.128,-61.475C-324.151,-58.165 -326.438,-56.113 -329.91,-55.319C-358.141,-50.643 -380.567,-47.265 -397.131,-45.227C-443.798,-39.286 -470.738,-24.766 -478.004,-1.614C-487.955,30.197 -463.007,46.102 -403.187,46.102C-373.354,46.102 -348.291,44.38 -328.053,40.968C-316.38,38.997 -310.472,36.03 -308.124,28.501L-304,15.364C-302.428,10.356 -295.513,10.149 -293.543,15.015C-285.109,35.848 -261.395,46.337 -222.373,46.337C-200.345,46.337 -179.434,45.591 -169.564,43.888C-159.128,42.079 -154.143,39.811 -151.822,31.926C-150.985,27.757 -145.902,25.942 -142.756,28.803C-130.073,40.341 -108.551,46.102 -78.188,46.102C-39.447,46.102 -16.82,45.039 -10.382,42.872C-4.992,41.15 -1.649,38.365 -0.458,34.489C-0.222,33.803 -0.121,33.063 0,32.262L4.642,17.211C5.45,14.587 4.245,13.336 1.07,13.45L-23.737,14.634C-40.288,15.549 -53.254,16.02 -62.612,16.02C-80.214,16.02 -92.297,14.816 -98.904,12.414C-107.092,9.266 -111.685,3.533 -112.73,-4.857C-113.097,-7.807 -110.836,-10.448 -107.888,-10.826L-34.361,-20.245C-10.06,-23.347 8.694,-29.474 21.903,-38.628C26.27,-41.654 32.016,-37.724 30.551,-32.617L9.736,39.959C9.218,41.695 9.419,43.115 10.314,44.137C11.303,45.308 12.999,45.88 15.508,45.88L48.032,45.88C53.704,45.88 55.743,42.933 56.443,40.477L85.172,-59.598C88.96,-72.765 101.071,-79.17 122.197,-79.17C141.278,-79.17 155.657,-79.002 164.847,-78.666C165.096,-78.645 165.318,-78.645 165.567,-78.645C167.35,-78.645 170.62,-79.291 172.221,-83.651L177.247,-97.377C178.23,-100.041 178.021,-102.403 176.669,-104.381" style="fill:rgb(35,31,32);fill-rule:nonzero;"/>
            </g>
        </g>
        <g transform="matrix(0.130976,0,0,0.130976,261.441,100.476)">
            <g transform="matrix(1,0,0,1,428.29,210.26)">
                <path d="M0,86.722C-3.979,89.987 -8.287,92.753 -12.927,95.027C-17.566,97.299 -22.32,99.135 -27.185,100.534C-32.053,101.932 -36.886,102.951 -41.688,103.594C-46.495,104.233 -51.048,104.555 -55.353,104.555C-64.857,104.555 -72.95,103.331 -79.628,100.883C-86.309,98.436 -91.72,95.057 -95.865,90.743C-100.011,86.432 -102.947,81.301 -104.673,75.357C-106.402,69.412 -106.974,62.886 -106.395,55.775C-105.702,47.268 -103.455,38.641 -99.646,29.899C-95.836,21.157 -90.512,13.262 -83.674,6.208C-76.835,-0.842 -68.333,-6.613 -58.175,-11.1C-48.016,-15.587 -36.254,-17.833 -22.891,-17.833C-13.09,-17.833 -5.075,-16.433 1.157,-13.636C7.389,-10.839 11.91,-7.574 14.725,-3.845C15.657,-2.561 16.258,-1.25 16.521,0.089C16.78,1.43 16.861,2.742 16.757,4.023C16.481,7.405 14.878,10.229 11.946,12.502C9.013,14.776 4.91,16.378 -0.361,17.31C-2.636,12.415 -5.812,8.569 -9.89,5.771C-13.971,2.974 -19.871,1.576 -27.59,1.576C-33.68,1.576 -39.459,2.798 -44.928,5.246C-50.399,7.695 -55.259,11.309 -59.508,16.086C-63.76,20.868 -67.322,26.782 -70.196,33.832C-73.075,40.886 -74.886,49.017 -75.636,58.223C-75.939,61.954 -75.632,65.451 -74.707,68.713C-73.787,71.978 -72.272,74.805 -70.164,77.193C-68.059,79.583 -65.39,81.477 -62.163,82.875C-58.936,84.274 -55.171,84.973 -50.862,84.973C-45.963,84.973 -41.54,84.421 -37.587,83.312C-33.638,82.205 -29.793,80.603 -26.059,78.504L-19.882,57.349L-43.046,57.349L-37.764,38.991L13.909,38.991L0,86.722Z" style="fill:rgb(147,149,152);fill-rule:nonzero;"/>
            </g>
        </g>
        <g transform="matrix(0.130976,0,0,0.130976,261.441,100.476)">
            <g transform="matrix(1,0,0,1,512.187,238.061)">
                <path d="M0,29.722L-4.037,-16.436L-32.964,29.722L0,29.722ZM35.611,73.782L4.652,73.782L2.011,48.779L-44.54,48.779L-60.162,73.782L-91.122,73.782L-12.139,-41.262C-10.146,-41.963 -7.864,-42.602 -5.289,-43.186C-2.716,-43.768 -0.161,-44.06 2.368,-44.06C7.425,-44.06 11.481,-43.186 14.537,-41.438C17.593,-39.69 19.465,-36.657 20.158,-32.346L35.611,73.782Z" style="fill:rgb(147,149,152);fill-rule:nonzero;"/>
            </g>
        </g>
        <g transform="matrix(0.130976,0,0,0.130976,261.441,100.476)">
            <g transform="matrix(1,0,0,1,687.892,194.001)">
                <path d="M0,117.842L-28.064,117.842L-12.349,42.486L-53.688,93.364L-78.188,93.364L-89.557,44.235C-91.666,50.064 -93.901,56.096 -96.264,62.33C-98.63,68.568 -100.958,74.83 -103.252,81.125C-105.547,87.42 -107.838,93.686 -110.128,99.92C-112.418,106.157 -114.612,112.132 -116.711,117.842L-144.552,117.842L-101.02,1.748C-99.358,1.399 -97.174,1.022 -94.467,0.612C-91.762,0.204 -88.926,0 -85.954,0C-81.054,0 -77.609,0.991 -75.616,2.972C-73.628,4.955 -72.379,7.404 -71.871,10.316L-59.188,70.635L-11.08,10.49C-8.104,6.761 -4.917,4.081 -1.516,2.447C1.882,0.817 5.589,0 9.598,0C12.566,0 15.376,0.148 18.025,0.438C20.675,0.73 22.566,1.166 23.71,1.748L0,117.842Z" style="fill:rgb(147,149,152);fill-rule:nonzero;"/>
            </g>
        </g>
        <g transform="matrix(0.130976,0,0,0.130976,261.441,100.476)">
            <g transform="matrix(1,0,0,1,724.416,194.001)">
                <path d="M0,117.842L-30.069,117.842L4.194,0.699C5.995,0.467 7.826,0.292 9.694,0.174C11.559,0.06 13.234,0 14.72,0C20.807,0 25.019,1.136 27.36,3.409C29.698,5.683 30.731,8.51 30.456,11.889C30.399,12.588 30.305,13.287 30.174,13.988C30.041,14.686 29.872,15.386 29.669,16.085L0,117.842Z" style="fill:rgb(147,149,152);fill-rule:nonzero;"/>
            </g>
        </g>
        <g transform="matrix(0.130976,0,0,0.130976,261.441,100.476)">
            <g transform="matrix(1,0,0,1,842.461,194.001)">
                <path d="M0,117.842L-24.945,117.842L-58.506,40.388L-80.851,117.842L-108.47,117.842L-74.471,1.224C-72.82,0.991 -70.905,0.73 -68.728,0.438C-66.554,0.148 -64.202,0 -61.676,0C-56.479,0 -52.699,0.962 -50.329,2.885C-47.962,4.808 -46.025,7.461 -44.518,10.84L-16.353,77.979L6.422,0.699C8.073,0.467 9.72,0.292 11.365,0.174C13.007,0.06 14.498,0 15.834,0C21.625,0 25.576,1.136 27.694,3.409C29.811,5.683 30.732,8.51 30.457,11.889C30.4,12.588 30.305,13.287 30.175,13.988C30.041,14.686 29.873,15.386 29.669,16.085L0,117.842Z" style="fill:rgb(147,149,152);fill-rule:nonzero;"/>
            </g>
        </g>
        <g transform="matrix(0.130976,0,0,0.130976,261.441,100.476)">
            <g transform="matrix(1,0,0,1,969.736,210.26)">
                <path d="M0,86.722C-3.98,89.987 -8.287,92.753 -12.927,95.027C-17.566,97.299 -22.32,99.135 -27.185,100.534C-32.053,101.932 -36.886,102.951 -41.688,103.594C-46.494,104.233 -51.048,104.555 -55.353,104.555C-64.857,104.555 -72.95,103.331 -79.628,100.883C-86.309,98.436 -91.72,95.057 -95.865,90.743C-100.011,86.432 -102.947,81.301 -104.674,75.357C-106.402,69.412 -106.975,62.886 -106.394,55.775C-105.702,47.268 -103.455,38.641 -99.645,29.899C-95.836,21.157 -90.512,13.262 -83.674,6.208C-76.835,-0.842 -68.333,-6.613 -58.174,-11.1C-48.016,-15.587 -36.254,-17.833 -22.891,-17.833C-13.09,-17.833 -5.075,-16.433 1.157,-13.636C7.389,-10.839 11.91,-7.574 14.725,-3.845C15.657,-2.561 16.258,-1.25 16.521,0.089C16.781,1.43 16.861,2.742 16.757,4.023C16.481,7.405 14.878,10.229 11.946,12.502C9.013,14.776 4.91,16.378 -0.361,17.31C-2.636,12.415 -5.812,8.569 -9.891,5.771C-13.971,2.974 -19.871,1.576 -27.59,1.576C-33.68,1.576 -39.459,2.798 -44.928,5.246C-50.399,7.695 -55.259,11.309 -59.508,16.086C-63.76,20.868 -67.322,26.782 -70.196,33.832C-73.075,40.886 -74.886,49.017 -75.636,58.223C-75.939,61.954 -75.632,65.451 -74.707,68.713C-73.787,71.978 -72.273,74.805 -70.164,77.193C-68.059,79.583 -65.39,81.477 -62.162,82.875C-58.936,84.274 -55.171,84.973 -50.862,84.973C-45.963,84.973 -41.54,84.421 -37.587,83.312C-33.638,82.205 -29.793,80.603 -26.059,78.504L-19.882,57.349L-43.046,57.349L-37.764,38.991L13.909,38.991L0,86.722Z" style="fill:rgb(147,149,152);fill-rule:nonzero;"/>
            </g>
        </g>
    </g>
    <defs>
        <linearGradient id="_Linear1" x1="0" y1="0" x2="1" y2="0" gradientUnits="userSpaceOnUse" gradientTransform="matrix(1,-5.55112e-17,-5.55112e-17,-1,0,-0.000151872)"><stop offset="0" style="stop-color:rgb(30,132,198);stop-opacity:1"/><stop offset="1" style="stop-color:rgb(77,191,165);stop-opacity:1"/></linearGradient>
        <linearGradient id="_Linear2" x1="0" y1="0" x2="1" y2="0" gradientUnits="userSpaceOnUse" gradientTransform="matrix(1,-5.55112e-17,-5.55112e-17,-1,0,0.00154445)"><stop offset="0" style="stop-color:rgb(38,131,190);stop-opacity:1"/><stop offset="1" style="stop-color:rgb(77,191,165);stop-opacity:1"/></linearGradient>
        <linearGradient id="_Linear3" x1="0" y1="0" x2="1" y2="0" gradientUnits="userSpaceOnUse" gradientTransform="matrix(1,5.55112e-17,5.55112e-17,-1,0,0.00278563)"><stop offset="0" style="stop-color:rgb(38,130,187);stop-opacity:1"/><stop offset="1" style="stop-color:rgb(81,184,160);stop-opacity:1"/></linearGradient>
    </defs>
</svg>
