<?xml version="1.0" encoding="UTF-8" standalone="no"?>
<!DOCTYPE svg PUBLIC "-//W3C//DTD SVG 1.1//EN" "http://www.w3.org/Graphics/SVG/1.1/DTD/svg11.dtd">
<svg width="100%" height="100%" viewBox="0 0 33 63" version="1.1" xmlns="http://www.w3.org/2000/svg" xmlns:xlink="http://www.w3.org/1999/xlink" xml:space="preserve" xmlns:serif="http://www.serif.com/" style="fill-rule:evenodd;clip-rule:evenodd;stroke-linejoin:round;stroke-miterlimit:2;">
    <g transform="matrix(1,0,0,1,-1786.36,-460)">
        <g transform="matrix(-1,0,0,1,1755.72,534)">
            <g transform="matrix(1,0,0,1,-31.1444,-74.0491)">
                <path d="M0,62.075C-0.121,62.075 -0.242,62.032 -0.338,61.944L-32.193,32.773C-32.294,32.681 -32.353,32.552 -32.355,32.416C-32.358,32.279 -32.306,32.147 -32.209,32.051L-0.354,0.196C-0.158,0 0.158,0 0.354,0.196C0.549,0.391 0.549,0.707 0.354,0.903L-31.132,32.388L0.338,61.206C0.541,61.392 0.556,61.709 0.369,61.913C0.271,62.02 0.135,62.075 0,62.075" style="fill-rule:nonzero;"/>
            </g>
        </g>
    </g>
</svg>
