<?xml version="1.0" encoding="UTF-8" standalone="no"?>
<!DOCTYPE svg PUBLIC "-//W3C//DTD SVG 1.1//EN" "http://www.w3.org/Graphics/SVG/1.1/DTD/svg11.dtd">
<svg width="100%" height="100%" viewBox="0 0 18 21" version="1.1" xmlns="http://www.w3.org/2000/svg" xmlns:xlink="http://www.w3.org/1999/xlink" xml:space="preserve" xmlns:serif="http://www.serif.com/" style="fill-rule:evenodd;clip-rule:evenodd;stroke-linejoin:round;stroke-miterlimit:2;">
    <g transform="matrix(1,0,0,1,-1565,-146)">
        <g transform="matrix(1,0,0,1,0,196)">
            <g transform="matrix(0.375783,0,0,0.375783,1095.45,16.11)">
                <g transform="matrix(1,0,0,1,1227.02,-196)">
                    <rect x="31.651" y="45.648" width="29.596" height="3.4"/>
                </g>
                <g transform="matrix(1,0,0,1,1227.02,-196)">
                    <rect x="31.651" y="35.402" width="29.596" height="3.4"/>
                </g>
                <g transform="matrix(1,0,0,1,1227.02,-196)">
                    <rect x="31.651" y="55.766" width="5.101" height="3.4"/>
                </g>
                <g transform="matrix(1,0,0,1,1227.02,-196)">
                    <rect x="39.433" y="55.766" width="5.361" height="3.4"/>
                </g>
                <g transform="matrix(1,0,0,1,1227.02,-196)">
                    <rect x="47.475" y="55.766" width="5.1" height="3.4"/>
                </g>
                <g transform="matrix(1,0,0,1,1227.02,-196)">
                    <path d="M24.199,74.494L63.88,74.494C67.475,74.494 70.4,71.57 70.4,67.975L70.4,21.775C70.4,20.837 69.639,20.075 68.7,20.075L24.2,20.074C23.749,20.074 23.317,20.253 22.998,20.572C22.679,20.891 22.5,21.323 22.5,21.774L22.5,72.795C22.499,73.732 23.26,74.494 24.199,74.494ZM25.898,23.474L67,23.475L67,67.975C67,69.695 65.6,71.093 63.88,71.093L25.898,71.093L25.898,23.474Z" style="fill-rule:nonzero;"/>
                </g>
            </g>
        </g>
    </g>
</svg>
