<?xml version="1.0" encoding="UTF-8" standalone="no"?>
<!DOCTYPE svg PUBLIC "-//W3C//DTD SVG 1.1//EN" "http://www.w3.org/Graphics/SVG/1.1/DTD/svg11.dtd">
<svg width="100%" height="100%" viewBox="0 0 11 10" version="1.1" xmlns="http://www.w3.org/2000/svg" xmlns:xlink="http://www.w3.org/1999/xlink" xml:space="preserve" xmlns:serif="http://www.serif.com/" style="fill-rule:evenodd;clip-rule:evenodd;stroke-linejoin:round;stroke-miterlimit:2;">
    <g transform="matrix(1,0,0,1,-1789.92,-30)">
        <g transform="matrix(0.65304,0,0,0.65304,1779.25,19.3372)">
            <path d="M29.656,16.328C30.208,16.328 30.682,16.523 31.078,16.914C31.474,17.305 31.672,17.776 31.672,18.328C31.672,18.88 31.474,19.354 31.078,19.75L26.828,24L31.078,28.234C31.474,28.63 31.672,29.099 31.672,29.641C31.672,30.193 31.474,30.664 31.078,31.055C30.682,31.445 30.208,31.641 29.656,31.641C29.104,31.641 28.635,31.448 28.25,31.063L24,26.828L19.766,31.063C19.38,31.448 18.906,31.641 18.344,31.641C17.792,31.641 17.32,31.448 16.93,31.063C16.539,30.677 16.344,30.208 16.344,29.656C16.344,29.094 16.536,28.62 16.922,28.234L21.172,24L16.922,19.75C16.536,19.365 16.344,18.896 16.344,18.344C16.344,17.792 16.539,17.318 16.93,16.922C17.32,16.526 17.792,16.328 18.344,16.328C18.896,16.328 19.37,16.526 19.766,16.922L24,21.172L28.25,16.922C28.646,16.526 29.115,16.328 29.656,16.328Z" style="fill:white;fill-rule:nonzero;"/>
        </g>
    </g>
</svg>
