<?xml version="1.0" encoding="UTF-8" standalone="no"?>
<!DOCTYPE svg PUBLIC "-//W3C//DTD SVG 1.1//EN" "http://www.w3.org/Graphics/SVG/1.1/DTD/svg11.dtd">
<svg width="100%" height="100%" viewBox="0 0 31 25" version="1.1" xmlns="http://www.w3.org/2000/svg" xmlns:xlink="http://www.w3.org/1999/xlink" xml:space="preserve" xmlns:serif="http://www.serif.com/" style="fill-rule:evenodd;clip-rule:evenodd;stroke-linejoin:round;stroke-miterlimit:2;">
    <g transform="matrix(1,0,0,1,-1585.6,-96)">
        <g transform="matrix(0.566484,0,0,0.566484,631.409,51.7317)">
            <path d="M1711.3,116.353C1709.67,116.353 1708.34,117.678 1708.34,119.315C1708.34,120.951 1709.67,122.278 1711.3,122.278C1712.94,122.278 1714.27,120.951 1714.27,119.315C1714.27,117.678 1712.94,116.353 1711.3,116.353ZM1722.73,116.353C1721.09,116.353 1719.76,117.678 1719.76,119.315C1719.76,120.951 1721.09,122.278 1722.73,122.278C1724.36,122.278 1725.69,120.951 1725.69,119.315C1725.69,117.678 1724.36,116.353 1722.73,116.353ZM1698.55,88.603L1696.65,82.708L1685.72,78.146L1684.41,81.286L1693.89,85.243L1702.91,113.293L1731.12,113.293L1739.06,88.603L1698.55,88.603ZM1728.64,109.891L1705.39,109.891L1699.64,92.006L1734.39,92.006L1728.64,109.891Z" style="fill:rgb(128,128,128);fill-rule:nonzero;"/>
        </g>
    </g>
</svg>
