<?xml version="1.0" encoding="UTF-8" standalone="no"?>
<!DOCTYPE svg PUBLIC "-//W3C//DTD SVG 1.1//EN" "http://www.w3.org/Graphics/SVG/1.1/DTD/svg11.dtd">
<svg width="100%" height="100%" viewBox="0 0 21 20" version="1.1" xmlns="http://www.w3.org/2000/svg" xmlns:xlink="http://www.w3.org/1999/xlink" xml:space="preserve" xmlns:serif="http://www.serif.com/" style="fill-rule:evenodd;clip-rule:evenodd;stroke-linejoin:round;stroke-miterlimit:2;">
    <g transform="matrix(1,0,0,1,-14.605,-64.4257)">
        <g transform="matrix(0.475308,0,0,0.475308,25,68.894)">
            <path d="M0,23.276L-0.362,23.276L-9.69,27.435L-9.69,21.121L-10.565,20.634C-15.513,17.883 -18.467,13.399 -18.467,8.639C-18.467,0.568 -10.183,-5.999 0,-5.999C10.182,-5.999 18.467,0.568 18.467,8.639C18.467,16.71 10.182,23.276 0,23.276M0,-9.401C-12.059,-9.401 -21.87,-1.309 -21.87,8.639C-21.87,14.357 -18.608,19.696 -13.093,23.096L-13.093,32.677L0.368,26.676C12.257,26.514 21.87,18.485 21.87,8.639C21.87,-1.309 12.059,-9.401 0,-9.401" style="fill:white;fill-rule:nonzero;"/>
        </g>
    </g>
</svg>
