<?xml version="1.0" encoding="UTF-8" standalone="no"?>
<!DOCTYPE svg PUBLIC "-//W3C//DTD SVG 1.1//EN" "http://www.w3.org/Graphics/SVG/1.1/DTD/svg11.dtd">
<svg width="100%" height="100%" viewBox="0 0 23 23" version="1.1" xmlns="http://www.w3.org/2000/svg" xmlns:xlink="http://www.w3.org/1999/xlink" xml:space="preserve" xmlns:serif="http://www.serif.com/" style="fill-rule:evenodd;clip-rule:evenodd;stroke-linecap:round;stroke-linejoin:round;stroke-miterlimit:2;">
    <g transform="matrix(1,0,0,1,-1562.25,-221.25)">
        <g transform="matrix(1,0,0,1,0,196)">
            <g transform="matrix(0.0367499,0,0,0.0367499,1538.22,21.0093)">
                <g transform="matrix(1,0,0,1,-3254.29,-1007.92)">
                    <path d="M4500,1429.43C4500,1271.64 4372.08,1143.72 4214.29,1143.72C4056.49,1143.72 3928.57,1271.64 3928.57,1429.43C3928.57,1587.23 4056.49,1715.15 4214.29,1715.15C4372.08,1715.15 4500,1587.23 4500,1429.43Z" style="fill:none;stroke:black;stroke-width:40.82px;"/>
                </g>
                <g transform="matrix(19.3232,0,0,19.3232,-2172.77,-2065.67)">
                    <path d="M165.645,130.831C165.645,129.504 164.474,128.342 162.863,128.067L161.471,127.751C160.05,127.508 159.019,126.491 159.019,125.332C159.019,123.968 160.412,122.857 162.124,122.857C163.836,122.857 165.23,123.968 165.23,125.332C165.23,125.359 165.252,125.382 165.28,125.382C165.308,125.382 165.33,125.359 165.33,125.332C165.33,123.926 163.918,122.784 162.174,122.762L162.174,121.008C162.174,120.98 162.152,120.958 162.124,120.958C162.096,120.958 162.074,120.98 162.074,121.008L162.074,122.762C160.33,122.784 158.919,123.926 158.919,125.332C158.919,126.54 159.985,127.599 161.452,127.849L162.843,128.165C164.409,128.432 165.545,129.553 165.545,130.831C165.545,132.334 164.01,133.558 162.124,133.558C160.238,133.558 158.703,132.334 158.703,130.831C158.703,130.804 158.681,130.781 158.653,130.781C158.625,130.781 158.604,130.804 158.604,130.831C158.604,132.376 160.156,133.631 162.074,133.653L162.074,135.407C162.074,135.435 162.096,135.457 162.124,135.457C162.152,135.457 162.174,135.435 162.174,135.407L162.174,133.653C164.092,133.631 165.645,132.376 165.645,130.831Z" style="fill:none;stroke:rgb(37,37,37);stroke-width:2.11px;"/>
                </g>
            </g>
        </g>
    </g>
</svg>
