<?xml version="1.0" encoding="UTF-8" standalone="no"?>
<!DOCTYPE svg PUBLIC "-//W3C//DTD SVG 1.1//EN" "http://www.w3.org/Graphics/SVG/1.1/DTD/svg11.dtd">
<svg width="100%" height="100%" viewBox="0 0 26 25" version="1.1" xmlns="http://www.w3.org/2000/svg" xmlns:xlink="http://www.w3.org/1999/xlink" xml:space="preserve" xmlns:serif="http://www.serif.com/" style="fill-rule:evenodd;clip-rule:evenodd;stroke-linejoin:round;stroke-miterlimit:2;">
    <g transform="matrix(1,0,0,1,-1587.62,-7935.16)">
        <g transform="matrix(0.809996,0,0,0.809996,1587.62,7934.93)">
            <path d="M25.82,12.67C26.284,12.67 26.66,13.05 26.66,13.51C26.66,13.97 26.284,14.35 25.82,14.35L23.48,14.35L23.48,15.85L25.82,15.85C26.284,15.85 26.66,16.226 26.66,16.69C26.66,17.15 26.284,17.53 25.82,17.53L22.64,17.53C22.18,17.53 21.804,17.15 21.804,16.69L21.804,10.33C21.804,9.87 22.18,9.49 22.644,9.49L25.824,9.49C26.284,9.49 26.66,9.87 26.66,10.33C26.66,10.794 26.284,11.17 25.82,11.17L23.48,11.17L23.48,12.67L25.82,12.67ZM20.68,16.69C20.68,17.05 20.448,17.37 20.104,17.486C20.018,17.514 19.928,17.526 19.838,17.526C19.558,17.526 19.318,17.406 19.158,17.192L15.9,12.77L15.9,16.69C15.9,17.15 15.528,17.53 15.06,17.53C14.6,17.53 14.226,17.15 14.226,16.69L14.226,10.33C14.226,9.97 14.456,9.65 14.798,9.536C14.878,9.506 14.978,9.492 15.058,9.492C15.318,9.492 15.558,9.632 15.718,9.832L19,14.27L19,10.33C19,9.87 19.376,9.49 19.84,9.49C20.3,9.49 20.68,9.87 20.68,10.33L20.68,16.69ZM13.024,16.69C13.024,17.15 12.648,17.53 12.184,17.53C11.724,17.53 11.348,17.15 11.348,16.69L11.348,10.33C11.348,9.87 11.724,9.49 12.188,9.49C12.648,9.49 13.024,9.87 13.024,10.33L13.024,16.69ZM9.736,17.53L6.556,17.53C6.096,17.53 5.716,17.15 5.716,16.69L5.716,10.33C5.716,9.87 6.096,9.49 6.556,9.49C7.02,9.49 7.396,9.87 7.396,10.33L7.396,15.85L9.736,15.85C10.2,15.85 10.576,16.226 10.576,16.69C10.576,17.15 10.2,17.53 9.736,17.53ZM32,13.27C32,6.11 24.82,0.282 16,0.282C7.18,0.282 0,6.11 0,13.27C0,19.686 5.692,25.062 13.38,26.08C13.9,26.192 14.61,26.424 14.79,26.868C14.95,27.268 14.896,27.888 14.842,28.308L14.622,29.668C14.562,30.068 14.302,31.248 16.022,30.528C17.742,29.808 25.242,25.088 28.602,21.228C30.9,18.71 32,16.13 32,13.27Z" style="fill:white;fill-rule:nonzero;"/>
        </g>
    </g>
</svg>
