<?xml version="1.0" encoding="UTF-8" standalone="no"?>
<!DOCTYPE svg PUBLIC "-//W3C//DTD SVG 1.1//EN" "http://www.w3.org/Graphics/SVG/1.1/DTD/svg11.dtd">
<svg width="100%" height="100%" viewBox="0 0 33 40" version="1.1" xmlns="http://www.w3.org/2000/svg" xmlns:xlink="http://www.w3.org/1999/xlink" xml:space="preserve" xmlns:serif="http://www.serif.com/" style="fill-rule:evenodd;clip-rule:evenodd;stroke-linejoin:round;stroke-miterlimit:2;">
    <g transform="matrix(1,0,0,1,-118.774,-166.137)">
        <g transform="matrix(1,0,0,1,96.7494,167.3)">
            <g transform="matrix(1,0,0,1,-96.7494,-167.3)">
                <path d="M135.001,166.137C126.053,166.137 118.774,173.416 118.774,182.363C118.774,196.049 133.583,205.269 134.213,205.655L135.001,206.137L135.788,205.655C136.418,205.269 151.226,196.049 151.226,182.363C151.226,173.416 143.948,166.137 135.001,166.137ZM134.999,202.56C132.043,200.52 121.79,192.698 121.79,182.363C121.79,175.079 127.716,169.153 135.001,169.153C142.285,169.153 148.21,175.079 148.21,182.363C148.21,192.674 137.955,200.515 134.999,202.56ZM135.001,176.917C130.849,176.917 127.471,180.295 127.471,184.446C127.471,188.597 130.849,191.973 135.001,191.973C139.151,191.973 142.529,188.597 142.529,184.446C142.529,180.295 139.151,176.917 135.001,176.917ZM135.001,188.571C132.725,188.571 130.874,186.72 130.874,184.446C130.874,182.171 132.725,180.32 135.001,180.32C137.276,180.32 139.126,182.171 139.126,184.446C139.126,186.72 137.276,188.571 135.001,188.571Z" style="fill:white;fill-rule:nonzero;"/>
            </g>
        </g>
    </g>
</svg>
