<?xml version="1.0" encoding="UTF-8" standalone="no"?>
<!DOCTYPE svg PUBLIC "-//W3C//DTD SVG 1.1//EN" "http://www.w3.org/Graphics/SVG/1.1/DTD/svg11.dtd">
<svg width="100%" height="100%" viewBox="0 0 23 20" version="1.1" xmlns="http://www.w3.org/2000/svg" xmlns:xlink="http://www.w3.org/1999/xlink" xml:space="preserve" xmlns:serif="http://www.serif.com/" style="fill-rule:evenodd;clip-rule:evenodd;stroke-linecap:round;stroke-linejoin:round;stroke-miterlimit:2;">
    <g transform="matrix(1,0,0,1,-1564.84,-317.46)">
        <g transform="matrix(1,0,0,1,0,196)">
            <g transform="matrix(6.28323e-18,-0.102613,0.102613,6.28323e-18,1546.99,314.631)">
                <g transform="matrix(4.16667,-5.10269e-16,-3.96874e-16,-3.24072,-5.85154e-15,482.826)">
                    <path d="M444,93.05L414,93.05C410.664,93.05 407.95,90.336 407.95,87L407.95,57C407.95,53.665 410.664,50.951 414,50.951L420,50.951C420.027,50.951 420.05,50.973 420.05,51C420.05,51.028 420.027,51.05 420,51.05L414,51.05C410.719,51.05 408.05,53.72 408.05,57L408.05,87C408.05,90.281 410.719,92.951 414,92.951L444,92.951C447.281,92.951 449.95,90.281 449.95,87L449.95,57C449.95,53.72 447.281,51.05 444,51.05L438,51.05C437.973,51.05 437.95,51.028 437.95,51C437.95,50.973 437.973,50.951 438,50.951L444,50.951C447.336,50.951 450.05,53.665 450.05,57L450.05,87C450.05,90.336 447.336,93.05 444,93.05Z" style="fill:none;stroke:rgb(37,37,37);stroke-width:3.92px;"/>
                </g>
                <g transform="matrix(4.16667,0,0,4.16667,0,90)">
                    <path d="M429,72.05C428.973,72.05 428.95,72.028 428.95,72L428.95,45C428.95,44.973 428.973,44.951 429,44.951C429.027,44.951 429.05,44.973 429.05,45L429.05,72C429.05,72.028 429.027,72.05 429,72.05Z" style="fill:none;stroke:rgb(37,37,37);stroke-width:3.51px;"/>
                </g>
                <g transform="matrix(4.16667,0,0,4.16667,0,90)">
                    <path d="M429,72.05C428.987,72.05 428.975,72.045 428.965,72.036L419.965,63.036C419.945,63.016 419.945,62.985 419.965,62.965C419.984,62.946 420.016,62.946 420.035,62.965L429,71.93L437.965,62.965C437.984,62.946 438.016,62.946 438.035,62.965C438.055,62.985 438.055,63.016 438.035,63.036L429.035,72.036C429.025,72.045 429.013,72.05 429,72.05Z" style="fill:none;stroke:rgb(37,37,37);stroke-width:3.51px;"/>
                </g>
            </g>
        </g>
    </g>
</svg>
