<?xml version="1.0" encoding="UTF-8" standalone="no"?>
<!DOCTYPE svg PUBLIC "-//W3C//DTD SVG 1.1//EN" "http://www.w3.org/Graphics/SVG/1.1/DTD/svg11.dtd">
<svg width="100%" height="100%" viewBox="0 0 27 25" version="1.1" xmlns="http://www.w3.org/2000/svg" xmlns:xlink="http://www.w3.org/1999/xlink" xml:space="preserve" xmlns:serif="http://www.serif.com/" style="fill-rule:evenodd;clip-rule:evenodd;stroke-linejoin:round;stroke-miterlimit:2;">
    <g transform="matrix(1,0,0,1,-1471.07,-96)">
        <g transform="matrix(0.607725,0,0,0.607725,1473.22,98.0681)">
            <path d="M0,34.331C0.984,28.489 7.025,25.784 12.162,24.535L13.461,24.219L13.461,19.231L13.092,18.767C11.104,16.268 9.869,12.601 9.869,9.198C9.869,3.61 13.112,0 18.132,0C23.152,0 26.395,3.61 26.395,9.198C26.395,12.6 25.16,16.267 23.173,18.767L22.803,19.231L22.803,24.219L24.102,24.535C29.239,25.784 35.279,28.489 36.265,34.331L0,34.331ZM26.205,21.569L26.205,20.4C28.464,17.322 29.799,13.183 29.799,9.198C29.799,1.779 25.001,-3.403 18.132,-3.403C11.264,-3.403 6.466,1.779 6.466,9.198C6.466,13.184 7.801,17.323 10.059,20.401L10.059,21.569C1.273,24.053 -3.542,29.154 -3.542,36.032L-3.542,37.734L39.806,37.734L39.806,36.032C39.806,29.153 34.99,24.052 26.205,21.569" style="fill:rgb(128,128,128);fill-rule:nonzero;"/>
        </g>
    </g>
</svg>
