<?xml version="1.0" encoding="UTF-8" standalone="no"?>
<!DOCTYPE svg PUBLIC "-//W3C//DTD SVG 1.1//EN" "http://www.w3.org/Graphics/SVG/1.1/DTD/svg11.dtd">
<svg width="100%" height="100%" viewBox="0 0 26 25" version="1.1" xmlns="http://www.w3.org/2000/svg" xmlns:xlink="http://www.w3.org/1999/xlink" xml:space="preserve" xmlns:serif="http://www.serif.com/" style="fill-rule:evenodd;clip-rule:evenodd;stroke-linejoin:round;stroke-miterlimit:2;">
    <g transform="matrix(1,0,0,1,-1415.89,-96)">
        <g transform="matrix(0.601077,0,0,0.601077,1420.65,103.078)">
            <path d="M0,18.042C-2.922,15.12 -4.531,11.234 -4.531,7.101C-4.531,2.967 -2.921,-0.918 0.001,-3.841C2.924,-6.763 6.809,-8.373 10.942,-8.373C15.074,-8.373 18.96,-6.763 21.882,-3.841C24.805,-0.918 26.415,2.967 26.415,7.1C26.415,11.233 24.805,15.118 21.882,18.041C18.96,20.964 15.074,22.574 10.94,22.574C6.808,22.574 2.922,20.964 0,18.042M33.659,27.411L25.436,19.188C28.271,15.801 29.818,11.57 29.818,7.1C29.818,2.058 27.854,-2.682 24.289,-6.247C20.723,-9.812 15.983,-11.775 10.942,-11.775C5.9,-11.775 1.161,-9.812 -2.404,-6.247C-5.97,-2.682 -7.934,2.058 -7.934,7.101C-7.934,12.143 -5.971,16.883 -2.406,20.448C1.159,24.013 5.898,25.977 10.94,25.977C15.411,25.977 19.643,24.43 23.03,21.594L31.252,29.817L33.659,27.411Z" style="fill:rgb(128,128,128);fill-rule:nonzero;"/>
        </g>
    </g>
</svg>
