<?xml version="1.0" encoding="UTF-8" standalone="no"?>
<!DOCTYPE svg PUBLIC "-//W3C//DTD SVG 1.1//EN" "http://www.w3.org/Graphics/SVG/1.1/DTD/svg11.dtd">
<svg width="100%" height="100%" viewBox="0 0 22 18" version="1.1" xmlns="http://www.w3.org/2000/svg" xmlns:xlink="http://www.w3.org/1999/xlink" xml:space="preserve" xmlns:serif="http://www.serif.com/" style="fill-rule:evenodd;clip-rule:evenodd;stroke-linejoin:round;stroke-miterlimit:2;">
    <g transform="matrix(1,0,0,1,-1418.62,-7938.72)">
        <g transform="matrix(1.125,0,0,1.125,540.94,218.836)">
            <path d="M797.393,6866.01C797.401,6866.18 797.403,6866.35 797.403,6866.52C797.403,6871.72 793.443,6877.73 786.197,6877.73C783.972,6877.73 781.901,6877.08 780.16,6875.96C780.466,6875.99 780.78,6876.01 781.099,6876.01C782.945,6876.01 784.643,6875.38 785.991,6874.32C784.268,6874.29 782.814,6873.15 782.312,6871.59C782.551,6871.63 782.797,6871.66 783.051,6871.66C783.41,6871.66 783.76,6871.61 784.089,6871.52C782.287,6871.16 780.928,6869.57 780.928,6867.66L780.928,6867.61C781.46,6867.9 782.068,6868.08 782.714,6868.1C781.655,6867.4 780.962,6866.19 780.962,6864.82C780.962,6864.1 781.155,6863.42 781.495,6862.84C783.439,6865.22 786.339,6866.79 789.614,6866.96C789.545,6866.67 789.512,6866.37 789.512,6866.06C789.512,6863.89 791.274,6862.12 793.451,6862.12C794.583,6862.12 795.608,6862.6 796.326,6863.37C797.224,6863.19 798.066,6862.86 798.826,6862.41C798.533,6863.33 797.91,6864.1 797.095,6864.59C797.893,6864.49 798.651,6864.28 799.358,6863.97C798.83,6864.76 798.162,6865.45 797.393,6866.01Z" style="fill:white;fill-rule:nonzero;"/>
        </g>
    </g>
</svg>
