<?xml version="1.0" encoding="UTF-8" standalone="no"?>
<!DOCTYPE svg PUBLIC "-//W3C//DTD SVG 1.1//EN" "http://www.w3.org/Graphics/SVG/1.1/DTD/svg11.dtd">
<svg width="100%" height="100%" viewBox="0 0 24 17" version="1.1" xmlns="http://www.w3.org/2000/svg" xmlns:xlink="http://www.w3.org/1999/xlink" xml:space="preserve" xmlns:serif="http://www.serif.com/" style="fill-rule:evenodd;clip-rule:evenodd;stroke-linejoin:round;stroke-miterlimit:2;">
    <g transform="matrix(1,0,0,1,-1531.79,-7939.34)">
        <g transform="matrix(0.721937,0,0,0.721937,1531.79,7935.91)">
            <path d="M0,14.79L0,17.31C0,19.9 0.32,22.49 0.32,22.49C0.32,22.49 0.632,24.69 1.592,25.664C2.808,26.938 4.408,26.898 5.12,27.032C7.68,27.278 16,27.352 16,27.352C16,27.352 22.724,27.344 27.2,27.02C27.828,26.944 29.192,26.94 30.408,25.664C31.368,24.692 31.68,22.488 31.68,22.488C31.68,22.488 32,19.9 32,17.308L32,14.792C32,12.2 31.68,9.612 31.68,9.612C31.68,9.612 31.368,7.408 30.408,6.436C29.192,5.16 27.828,5.156 27.2,5.08C22.724,4.756 16,4.748 16,4.748C16,4.748 7.68,4.82 5.12,5.068C4.408,5.202 2.808,5.162 1.592,6.436C0.632,7.41 0.32,9.61 0.32,9.61C0.32,9.61 0,12.202 0,14.79ZM12.696,20.25L12.696,11.26L21.342,15.77L12.702,20.25L12.696,20.25Z" style="fill:white;fill-rule:nonzero;"/>
        </g>
    </g>
</svg>
