<?xml version="1.0" encoding="UTF-8" standalone="no"?>
<!DOCTYPE svg PUBLIC "-//W3C//DTD SVG 1.1//EN" "http://www.w3.org/Graphics/SVG/1.1/DTD/svg11.dtd">
<svg width="100%" height="100%" viewBox="0 0 40 45" version="1.1" xmlns="http://www.w3.org/2000/svg" xmlns:xlink="http://www.w3.org/1999/xlink" xml:space="preserve" xmlns:serif="http://www.serif.com/" style="fill-rule:evenodd;clip-rule:evenodd;stroke-linejoin:round;stroke-miterlimit:2;">
    <g transform="matrix(1,0,0,1,-1534.41,-7290.51)">
        <g transform="matrix(1,0,0,1,-10.829,1193.17)">
            <g transform="matrix(-39.8157,-10.6686,-10.6686,39.8157,1580.15,6127.58)">
                <path d="M0.5,0.5C0.486,0.5 0.474,0.492 0.468,0.48L0.004,-0.448C-0.002,-0.459 -0.001,-0.472 0.005,-0.483C0.012,-0.494 0.023,-0.5 0.036,-0.5L0.964,-0.5C0.977,-0.5 0.988,-0.494 0.995,-0.483C1.001,-0.472 1.002,-0.459 0.996,-0.448L0.532,0.48C0.526,0.492 0.514,0.5 0.5,0.5ZM0.5,0.07L0.679,-0.288L0.321,-0.288L0.5,0.07Z" style="fill:url(#_Radial1);fill-rule:nonzero;"/>
            </g>
        </g>
    </g>
    <defs>
        <radialGradient id="_Radial1" cx="0" cy="0" r="1" gradientUnits="userSpaceOnUse" gradientTransform="matrix(-0.100846,-0.820292,-0.837282,0.100846,0.249226,0.154986)"><stop offset="0" style="stop-color:rgb(0,236,179);stop-opacity:1"/><stop offset="0.8" style="stop-color:rgb(41,149,239);stop-opacity:1"/><stop offset="1" style="stop-color:rgb(0,110,248);stop-opacity:1"/></radialGradient>
    </defs>
</svg>
